<?xml version="1.0" encoding="utf-8"?>
<!-- Generator: Adobe Illustrator 27.9.0, SVG Export Plug-In . SVG Version: 6.00 Build 0)  -->
<svg version="1.1" xmlns="http://www.w3.org/2000/svg" xmlns:xlink="http://www.w3.org/1999/xlink" x="0px" y="0px"
	 viewBox="0 0 500 500" style="enable-background:new 0 0 500 500;" xml:space="preserve">
<style type="text/css">
	.st0{fill:#131313;}
	.st1{fill:#FAA41A;}
	.st2{fill:#772424;}
	.st3{fill:#776B32;}
	.st4{fill:#325B76;}
	.st5{fill:#4C3276;}
</style>
<g id="Layer_2">
	<rect class="st0" width="500" height="500"/>
</g>
<g id="Layer_1">
	<path class="st1" d="M454.31,364.65H45.69c-10.87,0-19.68-8.81-19.68-19.68V127.76c0-10.87,8.81-19.68,19.68-19.68h408.62
		c10.87,0,19.68,8.81,19.68,19.68v217.21C473.99,355.84,465.18,364.65,454.31,364.65z"/>
	<path class="st1" d="M466.4,138.79H33.6c-4.19,0-7.59-3.4-7.59-7.59v0c0-16.89,13.69-30.59,30.59-30.59h386.81
		c16.89,0,30.59,13.69,30.59,30.59v0C473.99,135.39,470.59,138.79,466.4,138.79z"/>
	<path class="st2" d="M438.73,324.82H61.95c-9.17,0-16.6-7.43-16.6-16.6V141.99c0-9.17,7.43-16.6,16.6-16.6h376.77
		c9.17,0,16.6,7.43,16.6,16.6v166.23C455.33,317.38,447.9,324.82,438.73,324.82z"/>
	<path class="st3" d="M438.73,351.35H61.95c-9.17,0-16.6-7.43-16.6-16.6V168.53c0-9.17,7.43-16.6,16.6-16.6h376.77
		c9.17,0,16.6,7.43,16.6,16.6v166.23C455.33,343.92,447.9,351.35,438.73,351.35z"/>
	<path class="st4" d="M440.25,340.22H60.43c-8.33,0-15.08-6.75-15.08-15.08V190.76c0-8.33,6.75-15.08,15.08-15.08h379.82
		c8.33,0,15.08,6.75,15.08,15.08v134.38C455.33,333.47,448.58,340.22,440.25,340.22z"/>
	<path class="st5" d="M441.41,340.22H59.27c-7.69,0-13.91-6.23-13.91-13.91V214.03c0-7.69,6.23-13.91,13.91-13.91h382.15
		c7.69,0,13.91,6.23,13.91,13.91V326.3C455.33,333.99,449.1,340.22,441.41,340.22z"/>
	<ellipse class="st0" cx="134.11" cy="270.17" rx="47.13" ry="53.69"/>
	<path class="st1" d="M461.79,385.97H38.21c-6.74,0-12.21-5.47-12.21-12.21v-74.25c0-6.74,5.47-12.21,12.21-12.21h423.57
		c6.74,0,12.21,5.47,12.21,12.21v74.25C473.99,380.5,468.53,385.97,461.79,385.97z"/>
	<circle class="st5" cx="247.13" cy="287.3" r="26.13"/>
	<path class="st0" d="M413.42,244.77H286.33c-3.75,0-6.82-3.07-6.82-6.82v-1.88c0-3.75,3.07-6.82,6.82-6.82h127.08
		c3.75,0,6.82,3.07,6.82,6.82v1.88C420.23,241.7,417.17,244.77,413.42,244.77z"/>
	<path class="st0" d="M413.55,266.61H286.21c-3.68,0-6.69-3.01-6.69-6.69v-1.57c0-3.68,3.01-6.69,6.69-6.69h127.34
		c3.68,0,6.69,3.01,6.69,6.69v1.57C420.23,263.6,417.22,266.61,413.55,266.61z"/>
</g>
</svg>
